<?xml version="1.0" standalone="no"?>
<!DOCTYPE svg PUBLIC "-//W3C//DTD SVG 20010904//EN"
 "http://www.w3.org/TR/2001/REC-SVG-20010904/DTD/svg10.dtd">
<svg version="1.0" xmlns="http://www.w3.org/2000/svg"
 width="1088.000000pt" height="1088.000000pt" viewBox="0 0 1088.000000 1088.000000"
 preserveAspectRatio="xMidYMid meet">
<metadata>
Created by potrace 1.11, written by Peter Selinger 2001-2013
</metadata>
<g transform="translate(0.000000,1088.000000) scale(0.100000,-0.100000)"
fill="#000000" stroke="none">
<path d="M212 8769 c-48 -18 -46 179 -46 -3257 l0 -3216 26 -19 c25 -18 45
-20 340 -19 172 0 325 1 341 1 15 1 36 10 47 21 19 19 19 47 19 2526 0 1379 2
2508 3 2509 2 2 44 -58 93 -132 50 -75 95 -141 100 -147 6 -7 15 -19 20 -29 6
-9 81 -121 167 -249 400 -593 508 -754 518 -768 6 -8 42 -62 80 -120 38 -58
76 -113 82 -122 7 -9 19 -25 25 -35 36 -53 130 -193 178 -265 30 -46 59 -88
64 -94 13 -16 123 -181 144 -216 10 -17 24 -37 32 -45 8 -8 15 -18 15 -23 0
-5 6 -15 13 -22 18 -20 77 -105 77 -113 0 -3 8 -15 18 -26 11 -10 25 -32 33
-47 8 -15 17 -29 20 -32 3 -3 70 -102 149 -220 79 -118 147 -216 152 -218 4
-2 8 -8 8 -13 0 -4 19 -36 43 -69 23 -34 49 -71 57 -84 8 -13 28 -43 45 -67
16 -24 34 -52 40 -61 9 -15 138 -205 400 -593 56 -82 191 -283 300 -445 109
-162 202 -296 207 -298 4 -2 8 -8 8 -13 0 -7 172 -268 207 -314 5 -6 33 -47
63 -92 39 -59 60 -82 75 -82 11 0 139 -1 285 -1 358 -2 337 -3 358 20 16 20
17 195 17 3235 0 2323 -3 3218 -11 3229 -6 8 -22 19 -35 23 -13 5 -169 8 -346
8 -334 -1 -366 -5 -375 -44 -2 -9 -4 -1144 -4 -2523 1 -1380 0 -2508 -1 -2508
-3 0 -208 304 -212 315 -2 5 -7 12 -10 15 -6 4 -157 228 -395 585 -34 50 -64
92 -68 93 -5 2 -8 7 -8 12 0 5 -33 57 -73 117 -41 59 -86 126 -100 148 -15 22
-30 45 -34 50 -5 6 -35 51 -68 100 -32 50 -62 92 -65 95 -3 3 -9 13 -15 22
-11 20 -445 667 -458 683 -8 11 -202 298 -420 625 -72 107 -137 201 -144 208
-7 7 -13 20 -13 28 0 8 -4 14 -8 14 -5 0 -17 16 -28 35 -10 19 -22 35 -26 35
-5 0 -8 4 -8 10 0 5 -45 75 -100 155 -55 81 -100 150 -100 154 0 4 -9 16 -20
26 -11 10 -20 22 -20 27 0 5 -8 18 -18 29 -11 10 -25 32 -33 47 -8 15 -17 29
-20 32 -3 3 -34 48 -69 100 -35 52 -164 245 -287 428 -123 183 -299 444 -391
580 -92 137 -177 261 -188 277 l-21 29 -307 0 c-169 1 -315 -2 -324 -5z"/>
<path d="M5286 8763 c-39 -20 -38 -49 5 -173 21 -63 42 -122 46 -130 3 -8 7
-19 9 -25 1 -5 21 -62 43 -125 23 -63 43 -122 45 -130 15 -52 79 -227 88 -237
6 -7 8 -13 5 -13 -4 0 5 -29 18 -64 13 -35 21 -66 18 -70 -4 -3 -1 -6 5 -6 7
0 11 -3 10 -7 -2 -7 14 -56 39 -123 4 -8 7 -18 8 -22 2 -5 4 -10 5 -13 1 -3 3
-9 4 -14 0 -5 4 -13 9 -17 4 -4 7 -16 7 -26 0 -10 4 -26 10 -36 5 -9 24 -57
41 -107 17 -49 50 -146 74 -215 24 -69 67 -190 95 -270 28 -80 63 -179 76
-220 14 -41 30 -84 34 -95 5 -11 19 -49 30 -85 11 -36 25 -74 30 -85 9 -20 58
-161 106 -305 14 -41 29 -84 34 -95 5 -11 18 -49 30 -85 12 -36 25 -74 30 -85
5 -11 23 -63 41 -115 17 -52 35 -104 40 -115 9 -22 77 -210 84 -235 9 -32 125
-362 130 -370 4 -6 8 -18 10 -27 2 -10 31 -94 64 -188 33 -93 65 -186 72 -205
7 -19 16 -44 20 -55 5 -11 17 -47 28 -80 11 -33 39 -112 61 -175 23 -63 43
-119 44 -125 2 -5 6 -17 9 -25 3 -8 15 -42 27 -75 11 -33 23 -67 27 -75 3 -8
7 -19 8 -25 3 -12 145 -416 230 -655 13 -36 35 -101 50 -145 16 -44 41 -116
57 -160 16 -44 30 -84 31 -90 2 -5 8 -23 14 -40 6 -16 30 -84 53 -150 23 -66
44 -127 47 -135 3 -8 7 -19 9 -25 3 -10 61 -178 72 -205 3 -8 6 -18 6 -22 1
-3 4 -10 9 -14 4 -4 7 -15 7 -25 0 -10 10 -30 23 -45 l23 -26 362 -1 c305 0
365 3 384 15 14 9 32 40 45 79 52 152 94 271 128 364 20 55 37 105 39 110 1 6
7 24 13 40 6 17 39 109 73 205 88 252 197 562 232 659 17 45 31 88 33 95 1 6
6 22 12 36 5 14 24 68 42 120 19 52 40 109 47 127 8 17 14 35 14 39 0 5 11 38
24 74 13 36 43 119 65 185 23 66 46 127 50 135 5 9 12 31 16 50 4 19 10 40 14
45 4 6 18 42 31 80 12 39 27 76 33 83 5 6 7 12 3 12 -3 0 -1 12 5 28 17 42 99
275 104 292 2 8 11 32 19 53 9 20 13 37 10 37 -4 0 -2 6 3 13 6 6 25 55 43
107 49 144 188 538 210 598 11 28 16 52 12 52 -4 0 -2 4 3 8 8 6 46 103 60
152 3 14 75 216 116 330 11 30 22 60 23 65 2 6 5 17 9 25 7 20 14 44 15 50 0
3 6 19 12 35 10 24 46 126 104 290 2 6 4 12 4 15 1 3 13 37 28 75 14 39 36
102 49 140 13 39 30 88 38 110 15 40 76 211 81 230 2 6 5 15 6 20 1 6 7 21 12
35 17 42 88 240 120 335 17 50 35 101 41 115 5 14 11 30 12 35 3 10 120 344
132 375 3 8 7 20 9 25 2 11 52 151 61 175 4 8 7 17 7 20 1 3 5 11 10 18 11 18
-1 77 -20 93 -12 10 -94 13 -357 13 -188 1 -358 -1 -377 -4 -29 -4 -38 -12
-54 -45 -10 -21 -20 -50 -22 -63 -3 -14 -12 -38 -20 -53 -8 -16 -14 -31 -14
-34 0 -3 0 -6 -1 -7 0 -2 -2 -10 -4 -18 -2 -8 -11 -35 -20 -60 -9 -25 -19 -56
-21 -69 -3 -13 -12 -37 -20 -52 -8 -16 -12 -29 -9 -29 3 0 -1 -13 -10 -30 -9
-16 -13 -30 -11 -30 3 0 -2 -16 -10 -35 -8 -19 -11 -35 -7 -35 5 0 4 -4 -2 -8
-5 -4 -111 -311 -234 -682 -123 -371 -229 -686 -234 -700 -6 -14 -11 -29 -12
-35 -4 -14 -244 -737 -252 -755 -3 -8 -7 -19 -9 -25 -4 -16 -364 -1098 -371
-1115 -4 -8 -7 -17 -8 -20 -1 -3 -4 -12 -7 -20 -14 -37 -90 -267 -93 -280 -4
-15 -16 -51 -131 -390 -30 -91 -64 -192 -74 -225 -11 -33 -35 -107 -55 -165
-20 -58 -38 -112 -40 -120 -3 -8 -16 -49 -30 -90 -15 -41 -28 -79 -29 -85 -2
-5 -6 -18 -10 -27 -4 -9 -8 -22 -10 -30 -1 -7 -5 -18 -8 -24 -4 -6 -9 -22 -12
-36 -2 -15 -10 -37 -17 -50 -7 -12 -12 -25 -12 -28 1 -3 -2 -11 -6 -18 -6 -11
-139 356 -166 458 -7 24 -251 742 -264 773 -6 15 -8 27 -5 27 4 0 1 7 -6 15
-7 8 -9 15 -5 15 4 0 3 6 -3 13 -6 7 -13 24 -16 37 -6 28 -41 134 -55 165 -9
20 -59 168 -66 195 -2 8 -16 49 -30 90 -14 41 -28 82 -30 91 -2 8 -10 32 -19
52 -8 21 -15 38 -15 40 0 1 -2 9 -5 17 -54 159 -206 613 -232 695 -20 61 -40
120 -45 133 -22 53 -29 74 -69 197 -23 72 -45 139 -50 150 -9 21 -80 232 -84
250 -2 6 -6 17 -9 25 -3 8 -22 65 -42 125 -20 61 -40 119 -45 130 -9 22 -99
291 -105 315 -2 8 -4 15 -4 15 -2 0 -253 741 -258 760 -3 11 -7 27 -10 35 -16
42 -94 266 -96 275 -24 88 -124 365 -138 379 -17 19 -36 20 -379 20 -265 1
-367 -2 -384 -11z"/>
</g>
</svg>
